<mxfile host="app.diagrams.net" agent="Mozilla/5.0 (Windows NT 10.0; Win64; x64) AppleWebKit/537.36 (KHTML, like Gecko) Chrome/139.0.0.0 Safari/537.36" version="28.1.1">
  <diagram name="Page-1" id="x1UjUoIHjxWdgbURlH4r">
    <mxGraphModel dx="1090" dy="561" grid="1" gridSize="10" guides="1" tooltips="1" connect="1" arrows="1" fold="1" page="1" pageScale="1" pageWidth="850" pageHeight="1100" math="0" shadow="0">
      <root>
        <mxCell id="0" />
        <mxCell id="1" parent="0" />
        <mxCell id="12v4bzmW5jH_kYYgEAes-14" style="edgeStyle=orthogonalEdgeStyle;rounded=0;orthogonalLoop=1;jettySize=auto;html=1;entryX=0.5;entryY=0;entryDx=0;entryDy=0;exitX=1;exitY=0.5;exitDx=0;exitDy=0;" parent="1" source="12v4bzmW5jH_kYYgEAes-4" target="12v4bzmW5jH_kYYgEAes-13" edge="1">
          <mxGeometry relative="1" as="geometry">
            <mxPoint x="420" y="155" as="sourcePoint" />
          </mxGeometry>
        </mxCell>
        <mxCell id="JkMn_DBRTLzkTB1-Hy5G-8" style="edgeStyle=orthogonalEdgeStyle;rounded=0;orthogonalLoop=1;jettySize=auto;html=1;entryX=0.5;entryY=0;entryDx=0;entryDy=0;" edge="1" parent="1" source="12v4bzmW5jH_kYYgEAes-4" target="12v4bzmW5jH_kYYgEAes-5">
          <mxGeometry relative="1" as="geometry" />
        </mxCell>
        <mxCell id="12v4bzmW5jH_kYYgEAes-4" value="Proses" style="text;html=1;align=center;verticalAlign=middle;whiteSpace=wrap;rounded=0;fontSize=17;fontStyle=1" parent="1" vertex="1">
          <mxGeometry x="385" y="160" width="100" height="30" as="geometry" />
        </mxCell>
        <mxCell id="12v4bzmW5jH_kYYgEAes-12" style="edgeStyle=orthogonalEdgeStyle;rounded=0;orthogonalLoop=1;jettySize=auto;html=1;exitX=0;exitY=0.5;exitDx=0;exitDy=0;entryX=0.5;entryY=0;entryDx=0;entryDy=0;" parent="1" source="12v4bzmW5jH_kYYgEAes-4" target="JkMn_DBRTLzkTB1-Hy5G-4" edge="1">
          <mxGeometry relative="1" as="geometry">
            <mxPoint x="300" y="157" as="sourcePoint" />
            <mxPoint x="131" y="210" as="targetPoint" />
          </mxGeometry>
        </mxCell>
        <mxCell id="12v4bzmW5jH_kYYgEAes-22" style="edgeStyle=orthogonalEdgeStyle;rounded=0;orthogonalLoop=1;jettySize=auto;html=1;entryX=0;entryY=0.5;entryDx=0;entryDy=0;exitX=0;exitY=0.5;exitDx=0;exitDy=0;" parent="1" source="12v4bzmW5jH_kYYgEAes-13" target="12v4bzmW5jH_kYYgEAes-13" edge="1">
          <mxGeometry relative="1" as="geometry" />
        </mxCell>
        <mxCell id="JkMn_DBRTLzkTB1-Hy5G-11" style="edgeStyle=orthogonalEdgeStyle;rounded=0;orthogonalLoop=1;jettySize=auto;html=1;entryX=1;entryY=0.5;entryDx=0;entryDy=0;exitX=0.5;exitY=1;exitDx=0;exitDy=0;" edge="1" parent="1" source="12v4bzmW5jH_kYYgEAes-13" target="12v4bzmW5jH_kYYgEAes-29">
          <mxGeometry relative="1" as="geometry">
            <Array as="points">
              <mxPoint x="745" y="620" />
            </Array>
          </mxGeometry>
        </mxCell>
        <mxCell id="12v4bzmW5jH_kYYgEAes-13" value="&lt;b&gt;&lt;font style=&quot;font-size: 15px;&quot;&gt;Pengembangan Sistem&lt;/font&gt;&lt;/b&gt;&lt;div&gt;Pembuatan Frontend Next Js, Backend Golang, dan Tensorflow Machine Learning. PostgreSQL&lt;/div&gt;" style="rounded=0;whiteSpace=wrap;html=1;" parent="1" vertex="1">
          <mxGeometry x="620" y="222.5" width="250" height="70" as="geometry" />
        </mxCell>
        <mxCell id="JkMn_DBRTLzkTB1-Hy5G-12" style="edgeStyle=orthogonalEdgeStyle;rounded=0;orthogonalLoop=1;jettySize=auto;html=1;entryX=0;entryY=0.5;entryDx=0;entryDy=0;" edge="1" parent="1" source="12v4bzmW5jH_kYYgEAes-19" target="12v4bzmW5jH_kYYgEAes-29">
          <mxGeometry relative="1" as="geometry">
            <Array as="points">
              <mxPoint x="140" y="620" />
            </Array>
          </mxGeometry>
        </mxCell>
        <mxCell id="12v4bzmW5jH_kYYgEAes-19" value="&lt;font style=&quot;font-size: 15px;&quot;&gt;&lt;b&gt;Pengujian&lt;/b&gt;&lt;/font&gt;&lt;div&gt;1. Pengujian Blackbox Testing&lt;/div&gt;&lt;div&gt;2. Pengujian User Acceptence Test (UAT)&lt;/div&gt;" style="rounded=0;whiteSpace=wrap;html=1;" parent="1" vertex="1">
          <mxGeometry x="20" y="320" width="260" height="60" as="geometry" />
        </mxCell>
        <mxCell id="12v4bzmW5jH_kYYgEAes-24" value="Luaran" style="text;html=1;align=center;verticalAlign=middle;whiteSpace=wrap;rounded=0;fontSize=17;fontStyle=1" parent="1" vertex="1">
          <mxGeometry x="385" y="530" width="100" height="40" as="geometry" />
        </mxCell>
        <mxCell id="12v4bzmW5jH_kYYgEAes-29" value="&lt;font style=&quot;font-size: 16px;&quot;&gt;Aplikasi SIstem Pakar Mental Health&lt;/font&gt;" style="ellipse;whiteSpace=wrap;html=1;fontStyle=1" parent="1" vertex="1">
          <mxGeometry x="325" y="580" width="220" height="80" as="geometry" />
        </mxCell>
        <mxCell id="JkMn_DBRTLzkTB1-Hy5G-7" style="edgeStyle=orthogonalEdgeStyle;rounded=0;orthogonalLoop=1;jettySize=auto;html=1;" edge="1" parent="1" source="JkMn_DBRTLzkTB1-Hy5G-3" target="12v4bzmW5jH_kYYgEAes-4">
          <mxGeometry relative="1" as="geometry" />
        </mxCell>
        <mxCell id="JkMn_DBRTLzkTB1-Hy5G-3" value="&lt;b&gt;&lt;font style=&quot;font-size: 15px;&quot;&gt;Identifikasi Masalah&lt;/font&gt;&lt;/b&gt;&lt;div&gt;&lt;font style=&quot;&quot;&gt;1. Kurangnya pengetahuan Orang Tua dan Masyarakat tentang penyakit mental pada Pelajar&lt;/font&gt;&lt;/div&gt;&lt;div&gt;&lt;font style=&quot;&quot;&gt;2. Melakukan pembaruan terhadap penelitian sebelumnya agar mendapatkan sistem pakar yang lebih akurat&lt;/font&gt;&lt;/div&gt;&lt;div&gt;&lt;font style=&quot;&quot;&gt;3. sebagai alat deteksi awal untuk digunakan pada lingkungan pendidikan&lt;/font&gt;&lt;/div&gt;" style="rounded=0;whiteSpace=wrap;html=1;" vertex="1" parent="1">
          <mxGeometry x="120" y="20" width="630" height="90" as="geometry" />
        </mxCell>
        <mxCell id="JkMn_DBRTLzkTB1-Hy5G-4" value="&lt;font style=&quot;font-size: 15px;&quot;&gt;&lt;b&gt;Pengumpulan Data&lt;/b&gt;&lt;/font&gt;&lt;div&gt;1. Melakukan Wawancara terhadap pakar&lt;/div&gt;&lt;div&gt;2. Pembuatan Kuisioner&lt;/div&gt;&lt;div&gt;3. Pencarian Studi Pustaka&lt;/div&gt;" style="rounded=0;whiteSpace=wrap;html=1;" vertex="1" parent="1">
          <mxGeometry x="20" y="210" width="260" height="75" as="geometry" />
        </mxCell>
        <mxCell id="JkMn_DBRTLzkTB1-Hy5G-10" value="" style="edgeStyle=orthogonalEdgeStyle;rounded=0;orthogonalLoop=1;jettySize=auto;html=1;" edge="1" parent="1" source="12v4bzmW5jH_kYYgEAes-5" target="12v4bzmW5jH_kYYgEAes-13">
          <mxGeometry relative="1" as="geometry" />
        </mxCell>
        <mxCell id="12v4bzmW5jH_kYYgEAes-5" value="&lt;span style=&quot;font-weight: 700;&quot;&gt;&lt;font style=&quot;font-size: 14px;&quot;&gt;Implementasi Algoritma Neural Network dan Backward Chaining&lt;/font&gt;&lt;/span&gt;" style="rounded=0;whiteSpace=wrap;html=1;" parent="1" vertex="1">
          <mxGeometry x="307.5" y="220" width="255" height="75" as="geometry" />
        </mxCell>
      </root>
    </mxGraphModel>
  </diagram>
</mxfile>
